<?xml version="1.0" encoding="utf-8"?>
<!-- Svg Vector Icons : http://www.onlinewebfonts.com/icon -->
<!DOCTYPE svg PUBLIC "-//W3C//DTD SVG 1.1//EN" "http://www.w3.org/Graphics/SVG/1.1/DTD/svg11.dtd">
<svg version="1.1" xmlns="http://www.w3.org/2000/svg" xmlns:xlink="http://www.w3.org/1999/xlink" x="0px" y="0px" viewBox="0 0 1000 1000" enable-background="new 0 0 1000 1000" xml:space="preserve">
<metadata> Svg Vector Icons : http://www.onlinewebfonts.com/icon </metadata>
<g><path d="M913.4,86.6v826.9H86.6V86.6H913.4 M930.7,10H69.3C36.6,10,10,36.6,10,69.3v861.3c0,32.8,26.6,59.3,59.3,59.3h861.3c32.8,0,59.3-26.6,59.3-59.3V69.3C990,36.6,963.4,10,930.7,10L930.7,10z"/><path d="M439.8,674.9c-17.4,18.2-36.7,31-58,38.5c-21.3,7.4-44.8,11.2-70.4,11.2c-48.8,0-86.6-13.4-113.5-40.3c-26.9-26.9-42.6-53-47.1-78.5c-4.6-25.4-6.8-60.7-6.8-105.8c0-47.1,2.2-82.8,6.5-107c4.3-24.2,15.8-45.6,34.4-64.2c18.6-18.6,37.9-32.1,58-40.6c20.1-8.5,42.9-12.7,68.5-12.7c52.5,0,92.9,14.1,121.3,42.2c28.3,28.1,45.4,62.9,51.2,104.2H374.7c-4.6-17.4-11.6-30-21.1-37.8c-9.5-7.9-23.6-11.8-42.2-11.8c-9.5,0-17.9,1.8-25.1,5.3c-7.2,3.5-13.4,8.6-18.6,15.2c-5.2,6.6-9,16.9-11.5,30.7c-2.5,13.9-3.7,39.4-3.7,76.6s1.2,62.9,3.7,76.9c2.5,14.1,7.5,26.1,15.2,36c7.6,9.9,21,14.9,40,14.9c21.5,0,36.4-4.3,44.7-13c8.3-8.7,13.7-17.1,16.4-25.1c2.7-8.1,4-16.8,4-26.4v-6.2h-65.1v-90.6h173.1v61.4c0,37.2-3.2,66.7-9.6,88.4C468.5,638,456.8,657.6,439.8,674.9z"/><path d="M685.5,724.5c-36.8,0-68.5-4.2-95.2-12.7c-26.7-8.5-50.8-23.7-72.3-45.6l69.5-69.5c10.7,10.8,24.9,18.6,42.5,23.6c17.6,5,36.3,7.4,56.1,7.4c42.2,0,63.3-13.2,63.3-39.7c0-11.2-2.2-19-6.5-23.6c-4.3-4.5-8.8-7.9-13.3-9.9c-4.6-2.1-10.5-3.5-18-4.3l-53.3-7.4c-39.3-5.8-69-18.9-89-39.4c-20.1-20.5-30.1-49.9-30.1-88.4c0-40.9,14.5-74.4,43.4-100.5c28.9-26.1,68.2-39.1,117.9-39.1c32.7,0,60.9,4,84.7,12.1c23.8,8.1,45.2,21.6,64.2,40.6L781,396.4c-8.3-8.3-18.4-14.7-30.4-19.2c-12-4.5-27.1-6.8-45.3-6.8h-8.1c-17.8,0-31.1,4-40,12.1c-8.9,8.1-13.3,17.7-13.3,28.8c0,4.6,0.7,8.4,2.2,11.5c1.4,3.1,3.7,6.2,6.8,9.3c3.1,3.1,6.9,5.8,11.5,8.1c4.5,2.3,10.7,3.8,18.6,4.7l53.3,7.4c38.9,5.4,66,15.6,81.3,30.7c15.3,15.1,25.5,30.6,30.7,46.5c5.2,15.9,7.8,34.6,7.8,56.1c0,43-16.2,76.9-48.7,101.7C774.9,712.1,734.2,724.5,685.5,724.5z"/></g>
</svg>